<svg width="119" height="111" viewBox="0 0 119 111" fill="none" xmlns="http://www.w3.org/2000/svg">
<path d="M59.5229 81.9233C75.2638 81.9233 88.0243 70.1416 88.0243 55.6083C88.0243 41.0749 75.2638 29.2932 59.5229 29.2932C43.782 29.2932 31.0215 41.0749 31.0215 55.6083C31.0215 70.1416 43.782 81.9233 59.5229 81.9233Z" fill="url(#paint0_linear_2_438)"/>
<path d="M86.3084 6.15169L79.6106 21.0828C77.4274 25.9459 69.5268 22.9249 71.71 18.0619L78.4078 3.13072C80.591 -1.7323 88.4916 1.28867 86.3084 6.15169ZM47.2843 93.1334L40.5865 108.065C38.4033 112.928 30.5027 109.907 32.6859 105.044L39.3837 90.1124C41.5669 85.2494 49.4675 88.2704 47.2843 93.1334V93.1334ZM116.326 38.1402L100.154 44.3243C94.8873 46.34 91.6154 39.0455 96.8824 37.0298L113.054 30.8457C118.321 28.83 121.593 36.1245 116.326 38.1402V38.1402ZM22.1176 74.1708L5.94586 80.3548C0.6788 82.3706 -2.59316 75.076 2.6739 73.0603L18.8456 66.8763C24.1127 64.8605 27.3846 72.1551 22.1176 74.1708V74.1708ZM113.054 80.3601L96.8824 74.1761C91.6154 72.1603 94.8873 64.8658 100.154 66.8815L116.326 73.0656C121.593 75.0813 118.321 82.3758 113.054 80.3601ZM18.8456 44.3295L2.6739 38.1455C-2.59316 36.1298 0.6788 28.8352 5.94586 30.851L22.1176 37.035C27.3846 39.0507 24.1127 46.3453 18.8456 44.3295V44.3295ZM40.5808 3.12546L47.2786 18.0566C49.4618 22.9196 41.5612 25.9406 39.378 21.0776L32.6802 6.14642C30.497 1.2834 38.3976 -1.73756 40.5808 3.12546V3.12546ZM79.6049 90.1072L86.3027 105.038C88.4859 109.901 80.5853 112.922 78.4021 108.059L71.7043 93.1282C69.5211 88.2651 77.4217 85.2442 79.6049 90.1072V90.1072Z" fill="#FFB300"/>
<defs>
<linearGradient id="paint0_linear_2_438" x1="59.5229" y1="29.2932" x2="59.5229" y2="81.2217" gradientUnits="userSpaceOnUse">
<stop stop-color="#FFC227"/>
<stop offset="1" stop-color="#FFB300"/>
</linearGradient>
</defs>
</svg>
